<svg width="395" height="636" viewBox="0 0 395 636" fill="none" xmlns="http://www.w3.org/2000/svg">
<rect width="395" height="636" rx="197.5" fill="white"/>
<path d="M79.6 301.416C77.12 301.416 75.88 303.808 75.88 308.592V310.488C75.88 312.76 76.208 314.544 76.864 315.84C77.52 317.12 78.488 317.76 79.768 317.76C81.528 317.76 83.144 316.048 84.616 312.624H85.048L84.88 317.976H84.616C84.52 317.8 84.432 317.68 84.352 317.616C84.272 317.536 84.152 317.496 83.992 317.496C83.848 317.496 83.272 317.624 82.264 317.88C81.256 318.12 80.232 318.24 79.192 318.24C76.584 318.24 74.56 317.536 73.12 316.128C71.696 314.72 70.984 312.608 70.984 309.792C70.984 306.96 71.728 304.776 73.216 303.24C74.72 301.704 76.736 300.936 79.264 300.936C80.24 300.936 81.192 301.064 82.12 301.32C83.064 301.56 83.616 301.68 83.776 301.68C83.936 301.68 84.056 301.648 84.136 301.584C84.216 301.504 84.304 301.376 84.4 301.2H84.664L84.856 306.408H84.424C83.704 304.792 82.96 303.56 82.192 302.712C81.44 301.848 80.576 301.416 79.6 301.416ZM92.8879 318.24C90.8239 318.24 89.2719 317.712 88.2319 316.656C87.2079 315.584 86.6959 314.104 86.6959 312.216C86.6959 310.312 87.2719 308.856 88.4239 307.848C89.5919 306.84 91.0719 306.336 92.8639 306.336C96.4959 306.336 98.2399 308.16 98.0959 311.808H91.3279V312.744C91.3279 314.312 91.5279 315.496 91.9279 316.296C92.3279 317.096 93.0239 317.496 94.0159 317.496C95.8719 317.496 97.0879 316.504 97.6639 314.52L98.0959 314.592C97.7919 315.744 97.2399 316.64 96.4399 317.28C95.6559 317.92 94.4719 318.24 92.8879 318.24ZM91.3519 311.328H93.8239V310.152C93.8239 308.856 93.7439 307.976 93.5839 307.512C93.4399 307.032 93.1359 306.792 92.6719 306.792C92.2239 306.792 91.8879 307.048 91.6639 307.56C91.4559 308.056 91.3519 308.92 91.3519 310.152V311.328ZM105.671 306.768C104.967 306.768 104.463 307.152 104.159 307.92C103.855 308.688 103.703 309.96 103.703 311.736V312.984C103.703 314.568 103.879 315.704 104.231 316.392C104.583 317.08 105.231 317.424 106.175 317.424C107.119 317.424 107.871 317.104 108.431 316.464C108.991 315.824 109.351 315.096 109.511 314.28L109.943 314.328C109.639 315.704 109.079 316.696 108.263 317.304C107.431 317.928 106.287 318.24 104.831 318.24C102.975 318.24 101.551 317.744 100.559 316.752C99.5669 315.744 99.0709 314.28 99.0709 312.36C99.0709 310.424 99.6309 308.936 100.751 307.896C101.887 306.856 103.463 306.336 105.479 306.336C106.903 306.336 107.991 306.616 108.743 307.176C109.495 307.72 109.871 308.408 109.871 309.24C109.871 310.072 109.687 310.68 109.319 311.064C108.967 311.448 108.471 311.64 107.831 311.64C107.207 311.64 106.703 311.472 106.319 311.136C105.935 310.8 105.743 310.304 105.743 309.648C105.743 309.36 105.783 309.072 105.863 308.784H106.655C106.767 308.464 106.823 308.176 106.823 307.92C106.823 307.152 106.439 306.768 105.671 306.768ZM114.081 304.92C113.233 304.92 112.625 304.704 112.257 304.272C111.905 303.84 111.729 303.304 111.729 302.664C111.729 302.024 111.921 301.496 112.305 301.08C112.705 300.664 113.305 300.456 114.105 300.456C114.905 300.456 115.513 300.648 115.929 301.032C116.345 301.4 116.553 301.936 116.553 302.64C116.553 303.328 116.353 303.88 115.953 304.296C115.553 304.712 114.929 304.92 114.081 304.92ZM110.457 306.576H116.337V317.568H117.681V318H110.553V317.568H111.873V307.008H110.457V306.576ZM122.53 306.576H128.314V308.784C128.57 308.048 128.962 307.456 129.49 307.008C130.018 306.56 130.818 306.336 131.89 306.336C134.37 306.336 135.61 307.672 135.61 310.344V317.568H136.954V318H130.162V317.568H131.146V309.768C131.146 308.808 131.082 308.192 130.954 307.92C130.826 307.632 130.594 307.488 130.258 307.488C129.746 307.488 129.29 307.824 128.89 308.496C128.506 309.168 128.314 309.984 128.314 310.944V317.568H129.346V318H122.53V317.568H123.85V307.008H122.53V306.576ZM137.828 307.152L137.612 306.816C139.1 305.84 139.844 304.864 139.844 303.888C139.844 303.376 139.628 303.088 139.196 303.024L138.188 303.96C137.868 303.848 137.572 303.648 137.3 303.36C137.044 303.056 136.916 302.672 136.916 302.208C136.916 301.744 137.1 301.352 137.468 301.032C137.836 300.696 138.316 300.528 138.908 300.528C139.516 300.528 140.012 300.736 140.396 301.152C140.796 301.552 140.996 302.112 140.996 302.832C140.996 304.4 139.94 305.84 137.828 307.152ZM146.818 318.24C144.754 318.24 143.202 317.712 142.162 316.656C141.138 315.584 140.626 314.104 140.626 312.216C140.626 310.312 141.202 308.856 142.354 307.848C143.522 306.84 145.002 306.336 146.794 306.336C150.426 306.336 152.17 308.16 152.026 311.808H145.258V312.744C145.258 314.312 145.458 315.496 145.858 316.296C146.258 317.096 146.954 317.496 147.946 317.496C149.802 317.496 151.018 316.504 151.594 314.52L152.026 314.592C151.722 315.744 151.17 316.64 150.37 317.28C149.586 317.92 148.402 318.24 146.818 318.24ZM145.282 311.328H147.754V310.152C147.754 308.856 147.674 307.976 147.514 307.512C147.37 307.032 147.066 306.792 146.602 306.792C146.154 306.792 145.818 307.048 145.594 307.56C145.386 308.056 145.282 308.92 145.282 310.152V311.328ZM153.198 318.24V313.944H153.486C153.902 315.336 154.462 316.312 155.166 316.872C155.87 317.432 156.75 317.712 157.806 317.712C159.438 317.712 160.254 317.192 160.254 316.152C160.254 315.704 160.054 315.368 159.654 315.144C159.03 314.792 158.23 314.52 157.254 314.328C156.166 314.04 155.254 313.656 154.518 313.176C153.638 312.6 153.198 311.688 153.198 310.44C153.198 309.192 153.582 308.2 154.35 307.464C155.118 306.712 156.142 306.336 157.422 306.336C158.206 306.336 159.014 306.52 159.846 306.888C160.15 307.016 160.382 307.08 160.542 307.08C160.702 307.08 160.838 307.024 160.95 306.912C161.062 306.8 161.198 306.592 161.358 306.288H161.622V309.96H161.334C160.518 307.88 159.254 306.84 157.542 306.84C156.79 306.84 156.23 306.976 155.862 307.248C155.494 307.504 155.31 307.832 155.31 308.232C155.31 308.472 155.366 308.664 155.478 308.808C155.59 308.936 155.678 309.032 155.742 309.096C155.806 309.16 155.91 309.232 156.054 309.312C156.198 309.376 156.318 309.432 156.414 309.48C156.51 309.512 156.654 309.56 156.846 309.624C157.054 309.688 157.206 309.728 157.302 309.744C158.39 310.016 159.174 310.256 159.654 310.464C160.134 310.656 160.59 310.896 161.022 311.184C161.902 311.792 162.342 312.776 162.342 314.136C162.342 315.48 161.942 316.504 161.142 317.208C160.342 317.896 159.246 318.24 157.854 318.24C156.862 318.24 155.902 318.008 154.974 317.544C154.782 317.416 154.63 317.352 154.518 317.352C154.166 317.352 153.822 317.648 153.486 318.24H153.198ZM164.018 314.568V307.008H162.698V306.576H164.018V303.48L168.482 302.376V306.576H171.602V307.008H168.482V315.096C168.482 315.848 168.554 316.4 168.698 316.752C168.858 317.104 169.178 317.28 169.658 317.28C170.138 317.28 170.554 317.04 170.906 316.56C171.274 316.08 171.514 315.424 171.626 314.592L172.034 314.64C171.906 315.744 171.554 316.624 170.978 317.28C170.402 317.92 169.45 318.24 168.122 318.24C166.794 318.24 165.778 317.976 165.074 317.448C164.37 316.92 164.018 315.96 164.018 314.568ZM185.336 311.544C185.336 309.896 185.256 308.792 185.096 308.232C184.936 307.656 184.624 307.368 184.16 307.368C183.696 307.368 183.28 307.672 182.912 308.28C182.544 308.872 182.36 309.672 182.36 310.68V315.072C182.36 315.76 182.496 316.344 182.768 316.824C183.04 317.304 183.44 317.544 183.968 317.544C184.496 317.544 184.856 317.192 185.048 316.488C185.24 315.784 185.336 314.552 185.336 312.792V311.544ZM182.312 306.576V308.472C182.936 307.048 184.04 306.336 185.624 306.336C187 306.336 188.064 306.832 188.816 307.824C189.584 308.816 189.968 310.32 189.968 312.336C189.968 314.352 189.552 315.84 188.72 316.8C187.904 317.76 186.672 318.24 185.024 318.24C184.256 318.24 183.68 318.144 183.296 317.952C182.912 317.76 182.6 317.464 182.36 317.064V323.28H185.456V323.712H176.576V323.28H177.896V307.008H176.624V306.576H182.312ZM196.445 312.36H197.141V310.512C197.141 308.992 197.053 307.976 196.877 307.464C196.717 306.936 196.397 306.672 195.917 306.672C195.629 306.672 195.365 306.752 195.125 306.912C194.901 307.056 194.789 307.264 194.789 307.536C194.789 307.792 194.837 308.056 194.933 308.328H195.533C195.661 308.664 195.725 309.072 195.725 309.552C195.725 310.016 195.525 310.424 195.125 310.776C194.725 311.112 194.221 311.28 193.613 311.28C192.237 311.28 191.549 310.616 191.549 309.288C191.549 307.32 193.221 306.336 196.565 306.336C198.469 306.336 199.781 306.664 200.501 307.32C201.237 307.96 201.605 309.144 201.605 310.872V315.744C201.605 316.576 201.837 316.992 202.301 316.992C202.845 316.992 203.165 316.168 203.261 314.52L203.621 314.544C203.557 315.952 203.293 316.92 202.829 317.448C202.365 317.976 201.605 318.24 200.549 318.24C198.629 318.24 197.525 317.648 197.237 316.464C197.029 317.072 196.717 317.52 196.301 317.808C195.885 318.096 195.277 318.24 194.477 318.24C192.109 318.24 190.925 317.272 190.925 315.336C190.925 314.2 191.373 313.424 192.269 313.008C193.181 312.576 194.573 312.36 196.445 312.36ZM195.485 315.312C195.485 316.144 195.525 316.68 195.605 316.92C195.701 317.16 195.869 317.28 196.109 317.28C196.365 317.28 196.597 317.08 196.805 316.68C197.029 316.264 197.141 315.696 197.141 314.976V312.744H196.973C195.981 312.744 195.485 313.472 195.485 314.928V315.312ZM204.409 318.24V313.944H204.697C205.113 315.336 205.673 316.312 206.377 316.872C207.081 317.432 207.961 317.712 209.017 317.712C210.649 317.712 211.465 317.192 211.465 316.152C211.465 315.704 211.265 315.368 210.865 315.144C210.241 314.792 209.441 314.52 208.465 314.328C207.377 314.04 206.465 313.656 205.729 313.176C204.849 312.6 204.409 311.688 204.409 310.44C204.409 309.192 204.793 308.2 205.561 307.464C206.329 306.712 207.353 306.336 208.633 306.336C209.417 306.336 210.225 306.52 211.057 306.888C211.361 307.016 211.593 307.08 211.753 307.08C211.913 307.08 212.049 307.024 212.161 306.912C212.273 306.8 212.409 306.592 212.569 306.288H212.833V309.96H212.545C211.729 307.88 210.465 306.84 208.753 306.84C208.001 306.84 207.441 306.976 207.073 307.248C206.705 307.504 206.521 307.832 206.521 308.232C206.521 308.472 206.577 308.664 206.689 308.808C206.801 308.936 206.889 309.032 206.953 309.096C207.017 309.16 207.121 309.232 207.265 309.312C207.409 309.376 207.529 309.432 207.625 309.48C207.721 309.512 207.865 309.56 208.057 309.624C208.265 309.688 208.417 309.728 208.513 309.744C209.601 310.016 210.385 310.256 210.865 310.464C211.345 310.656 211.801 310.896 212.233 311.184C213.113 311.792 213.553 312.776 213.553 314.136C213.553 315.48 213.153 316.504 212.353 317.208C211.553 317.896 210.457 318.24 209.065 318.24C208.073 318.24 207.113 318.008 206.185 317.544C205.993 317.416 205.841 317.352 205.729 317.352C205.377 317.352 205.033 317.648 204.697 318.24H204.409ZM232.616 318H227.144L226.88 316.248C226.624 316.888 226.24 317.384 225.728 317.736C225.232 318.072 224.488 318.24 223.496 318.24C221.016 318.24 219.776 316.904 219.776 314.232V307.008H218.432V306.576H224.24V314.808C224.24 315.768 224.304 316.4 224.432 316.704C224.576 317.008 224.848 317.16 225.248 317.16C225.664 317.16 226.032 316.912 226.352 316.416C226.672 315.92 226.832 315.232 226.832 314.352V307.008H225.728V306.576H231.296V317.568H232.616V318ZM233.155 306.576H238.939V308.784C239.195 308.048 239.587 307.456 240.115 307.008C240.643 306.56 241.443 306.336 242.515 306.336C244.995 306.336 246.235 307.672 246.235 310.344V317.568H247.579V318H240.787V317.568H241.771V309.768C241.771 308.808 241.707 308.192 241.579 307.92C241.451 307.632 241.219 307.488 240.883 307.488C240.371 307.488 239.915 307.824 239.515 308.496C239.131 309.168 238.939 309.984 238.939 310.944V317.568H239.971V318H233.155V317.568H234.475V307.008H233.155V306.576ZM254.208 318.24C252.144 318.24 250.592 317.712 249.552 316.656C248.528 315.584 248.016 314.104 248.016 312.216C248.016 310.312 248.592 308.856 249.744 307.848C250.912 306.84 252.392 306.336 254.184 306.336C257.816 306.336 259.56 308.16 259.416 311.808H252.648V312.744C252.648 314.312 252.848 315.496 253.248 316.296C253.648 317.096 254.344 317.496 255.336 317.496C257.192 317.496 258.408 316.504 258.984 314.52L259.416 314.592C259.112 315.744 258.56 316.64 257.76 317.28C256.976 317.92 255.792 318.24 254.208 318.24ZM252.672 311.328H255.144V310.152C255.144 308.856 255.064 307.976 254.904 307.512C254.76 307.032 254.456 306.792 253.992 306.792C253.544 306.792 253.208 307.048 252.984 307.56C252.776 308.056 252.672 308.92 252.672 310.152V311.328ZM273.344 311.544C273.344 309.896 273.264 308.792 273.104 308.232C272.944 307.656 272.632 307.368 272.168 307.368C271.704 307.368 271.288 307.672 270.92 308.28C270.552 308.872 270.368 309.672 270.368 310.68V315.072C270.368 315.76 270.504 316.344 270.776 316.824C271.048 317.304 271.448 317.544 271.976 317.544C272.504 317.544 272.864 317.192 273.056 316.488C273.248 315.784 273.344 314.552 273.344 312.792V311.544ZM270.32 306.576V308.472C270.944 307.048 272.048 306.336 273.632 306.336C275.008 306.336 276.072 306.832 276.824 307.824C277.592 308.816 277.976 310.32 277.976 312.336C277.976 314.352 277.56 315.84 276.728 316.8C275.912 317.76 274.68 318.24 273.032 318.24C272.264 318.24 271.688 318.144 271.304 317.952C270.92 317.76 270.608 317.464 270.368 317.064V323.28H273.464V323.712H264.584V323.28H265.904V307.008H264.632V306.576H270.32ZM278.693 300H284.477V308.784C284.733 308.048 285.125 307.456 285.653 307.008C286.181 306.56 286.981 306.336 288.053 306.336C290.533 306.336 291.773 307.672 291.773 310.344V317.568H293.117V318H286.325V317.568H287.309V309.768C287.309 308.808 287.245 308.192 287.117 307.92C286.989 307.632 286.757 307.488 286.421 307.488C285.909 307.488 285.453 307.824 285.053 308.496C284.669 309.168 284.477 309.984 284.477 310.944V317.568H285.509V318H278.693V317.568H280.013V300.432H278.693V300ZM301.234 313.272V311.232C301.234 309.68 301.146 308.552 300.97 307.848C300.81 307.128 300.426 306.768 299.818 306.768C299.466 306.768 299.178 306.872 298.954 307.08C298.746 307.272 298.594 307.6 298.498 308.064C298.354 308.784 298.282 309.88 298.282 311.352V313.224C298.282 314.968 298.33 316.016 298.426 316.368C298.538 316.72 298.65 317.008 298.762 317.232C298.938 317.616 299.282 317.808 299.794 317.808C300.418 317.808 300.826 317.448 301.018 316.728C301.162 316.216 301.234 315.064 301.234 313.272ZM299.746 318.24C297.746 318.24 296.234 317.728 295.21 316.704C294.186 315.68 293.674 314.216 293.674 312.312C293.674 310.392 294.218 308.92 295.306 307.896C296.41 306.856 297.954 306.336 299.938 306.336C301.922 306.336 303.402 306.816 304.378 307.776C305.354 308.72 305.842 310.168 305.842 312.12C305.842 316.2 303.81 318.24 299.746 318.24ZM307.713 314.568V307.008H306.393V306.576H307.713V303.48L312.177 302.376V306.576H315.297V307.008H312.177V315.096C312.177 315.848 312.249 316.4 312.393 316.752C312.553 317.104 312.873 317.28 313.353 317.28C313.833 317.28 314.249 317.04 314.601 316.56C314.969 316.08 315.209 315.424 315.321 314.592L315.729 314.64C315.601 315.744 315.249 316.624 314.673 317.28C314.097 317.92 313.145 318.24 311.817 318.24C310.489 318.24 309.473 317.976 308.769 317.448C308.065 316.92 307.713 315.96 307.713 314.568ZM323.711 313.272V311.232C323.711 309.68 323.623 308.552 323.447 307.848C323.287 307.128 322.903 306.768 322.295 306.768C321.943 306.768 321.655 306.872 321.431 307.08C321.223 307.272 321.071 307.6 320.975 308.064C320.831 308.784 320.759 309.88 320.759 311.352V313.224C320.759 314.968 320.807 316.016 320.903 316.368C321.015 316.72 321.127 317.008 321.239 317.232C321.415 317.616 321.759 317.808 322.271 317.808C322.895 317.808 323.303 317.448 323.495 316.728C323.639 316.216 323.711 315.064 323.711 313.272ZM322.223 318.24C320.223 318.24 318.711 317.728 317.687 316.704C316.663 315.68 316.151 314.216 316.151 312.312C316.151 310.392 316.695 308.92 317.783 307.896C318.887 306.856 320.431 306.336 322.415 306.336C324.399 306.336 325.879 306.816 326.855 307.776C327.831 308.72 328.319 310.168 328.319 312.12C328.319 316.2 326.287 318.24 322.223 318.24Z" fill="black"/>
</svg>
